<?xml version="1.0" encoding="UTF-8"?>
<svg id="Layer_2" data-name="Layer 2" xmlns="http://www.w3.org/2000/svg" xmlns:xlink="http://www.w3.org/1999/xlink" viewBox="0 0 1512 747.26">
  <defs>
    <style>
      .cls-1 {
        fill: url(#linear-gradient-5);
      }

      .cls-1, .cls-2, .cls-3, .cls-4, .cls-5 {
        isolation: isolate;
        opacity: .4;
        stroke-width: 0px;
      }

      .cls-2 {
        fill: url(#linear-gradient-2);
      }

      .cls-3 {
        fill: url(#linear-gradient-3);
      }

      .cls-4 {
        fill: url(#linear-gradient-4);
      }

      .cls-5 {
        fill: url(#linear-gradient);
      }
    </style>
    <linearGradient id="linear-gradient" x1="115.92" y1="743.53" x2="116.92" y2="743.53" gradientTransform="translate(-175276 555983.95) scale(1512 -747.26)" gradientUnits="userSpaceOnUse">
      <stop offset="0" stop-color="#5ac3d7"/>
      <stop offset="1" stop-color="#499895"/>
    </linearGradient>
    <linearGradient id="linear-gradient-2" y1="743.54" y2="743.54" gradientTransform="translate(-175276 491618.28) scale(1512 -660.74)" xlink:href="#linear-gradient"/>
    <linearGradient id="linear-gradient-3" y1="743.53" y2="743.53" gradientTransform="translate(-175276 512808.15) scale(1512 -689.23)" xlink:href="#linear-gradient"/>
    <linearGradient id="linear-gradient-4" y1="743.53" y2="743.53" gradientTransform="translate(-175276 544663.24) scale(1512 -732.04)" xlink:href="#linear-gradient"/>
    <linearGradient id="linear-gradient-5" y1="743.53" y2="743.53" gradientTransform="translate(-175276 524402.18) scale(1512 -704.81)" xlink:href="#linear-gradient"/>
  </defs>
  <g id="Layer_1-2" data-name="Layer 1">
    <g>
      <path class="cls-5" d="m0,0v747.26c100.8-67.31,201.6-112.34,302.4-135.08,100.8-22.74,201.6-33.65,302.4-32.72,100.8.93,201.6-45.7,302.4-139.88,100.8-94.18,201.6-93.67,302.4,1.53,100.8,95.2,201.6,61.04,302.4-102.48V0H0Z"/>
      <path class="cls-2" d="m0,0v660.74c100.8-2.84,201.6-10.48,302.4-22.93,100.8-12.45,201.6-45.49,302.4-99.11,100.8-53.62,201.6-80.19,302.4-79.72,100.8.47,201.6-5.08,302.4-16.67,100.8-11.58,201.6-44.04,302.4-97.35V0H0Z"/>
      <path class="cls-3" d="m0,0v688.67c100.8,2.49,201.6-3.39,302.4-17.65,100.8-14.26,201.6-74.98,302.4-182.15,100.8-107.17,201.6-93.64,302.4,40.61,100.8,134.25,201.6,83.02,302.4-153.69,100.8-236.71,201.6-252.17,302.4-46.38V0H0Z"/>
      <path class="cls-4" d="m0,0v732.04c100.8-12.37,201.6-26.46,302.4-42.28,100.8-15.82,201.6-71.07,302.4-165.74,100.8-94.67,201.6-101.18,302.4-19.52,100.8,81.66,201.6,59.13,302.4-67.6,100.8-126.73,201.6-163.52,302.4-110.37V0H0Z"/>
      <path class="cls-1" d="m0,0v701.2c100.8,9.18,201.6.86,302.4-24.95,100.8-25.81,201.6-60.79,302.4-104.96,100.8-44.16,201.6-76.27,302.4-96.33,100.8-20.06,201.6-43.35,302.4-69.88,100.8-26.52,201.6-63.33,302.4-110.43V0H0Z"/>
    </g>
  </g>
</svg>