<svg xmlns="http://www.w3.org/2000/svg" width="2572.576" height="2726.994" viewBox="0 0 2572.576 2726.994">
  <path id="Path_19" data-name="Path 19" d="M7939.572,1402.076c174.2,29.6,227.755,137.342,349.413,295.3s17.109,217.863,137.221,336.525,174.515,91.747,343.226,138.122,178.108-23.227,331.61,47.378,161.037,157.247,282.4,235.041,203.7,12.6,322.964,63.162,148.772,155.828,270.647,140.038,133.5-93.878,216.847-203.2,0-235.041,0-235.041l49.363,768.07s18.668,326.775-382.767,453.456-742.74,240.867-1222.972,53.265-523.466-280.647-697.954-803.675S7939.572,1402.076,7939.572,1402.076Z" transform="translate(5317.917 -7118.004) rotate(100)" fill="#247477" stroke="#707070" stroke-width="1" opacity="0.134"/>
</svg>
